<svg width="252" height="239" viewBox="0 0 252 239" fill="none" xmlns="http://www.w3.org/2000/svg">
<path d="M223.373 129.251L37.2422 125.595L39.4182 14.831L70.7122 0L225.852 3.047L223.373 129.251Z" fill="#F0F0F0"/>
<path d="M224.63 127.435H38.4639V17.457L71.8389 1.20703H224.63V127.435Z" fill="#CAE2FC"/>
<path d="M212.124 118.08L49.1299 115.968L51.6069 17.3263L63.7129 8.73828L213.964 10.9203L212.124 118.08Z" fill="#A9D1FC"/>
<path d="M213.964 115.97H49.1299V19.3329L59.0879 10.9219H213.964V115.97Z" fill="white"/>
<path opacity="0.1" d="M38.4639 17.458L51.9359 26.157C52.5599 26.56 53.3889 26.406 53.8279 25.807L71.8389 1.20703L38.4639 17.458Z" fill="black"/>
<path d="M38.4639 17.457L51.8039 23.286C52.7109 23.682 53.7719 23.425 54.3959 22.657L71.8389 1.20703L38.4639 17.457Z" fill="#A9D1FC"/>
<path d="M63.1941 67.3843L87.3347 33.5213H93.6179V67.1858C95.2052 67.1417 96.5059 67.0315 97.52 66.8551C98.5342 66.6347 99.3278 66.304 99.901 65.8631C100.474 65.3781 100.871 64.7387 101.092 63.9451C101.312 63.1514 101.422 62.1152 101.422 60.8365H103.869V76.9082H101.422C101.422 75.7177 101.312 74.7477 101.092 73.9981C100.871 73.2485 100.474 72.6753 99.901 72.2785C99.3278 71.8376 98.5342 71.551 97.52 71.4187C96.5059 71.2423 95.2052 71.1321 93.6179 71.088V73.1383C93.6179 74.6815 93.684 76.0264 93.8163 77.1728C93.9926 78.3192 94.3013 79.2892 94.7422 80.0828C95.1831 80.8324 95.8004 81.4056 96.5941 81.8025C97.4318 82.1993 98.4901 82.4197 99.7687 82.4638V85.1094H77.0832V82.4638C78.6265 82.4197 79.861 82.1993 80.787 81.8025C81.757 81.3615 82.4845 80.7663 82.9696 80.0167C83.4987 79.2671 83.8514 78.3632 84.0278 77.305C84.2041 76.2468 84.2923 75.0122 84.2923 73.6013V71.3526H63.1941V67.3843ZM84.2923 45.757H84.0278L68.8159 67.1858H84.2923V45.757ZM131.387 33.5213C134.429 33.5213 137.273 34.2048 139.919 35.5716C142.609 36.9385 144.945 38.8124 146.93 41.1934C148.914 43.5744 150.479 46.3743 151.625 49.593C152.816 52.8117 153.411 56.295 153.411 60.0429C153.411 63.6144 152.816 66.9654 151.625 70.0959C150.479 73.2265 148.914 75.9602 146.93 78.2971C144.945 80.5899 142.609 82.4197 139.919 83.7866C137.273 85.1094 134.429 85.7708 131.387 85.7708C128.389 85.7708 125.567 85.1094 122.921 83.7866C120.32 82.4197 118.027 80.5899 116.043 78.2971C114.103 75.9602 112.56 73.2265 111.413 70.0959C110.267 66.9654 109.694 63.6144 109.694 60.0429C109.694 56.295 110.267 52.8117 111.413 49.593C112.56 46.3743 114.103 43.5744 116.043 41.1934C118.027 38.8124 120.32 36.9385 122.921 35.5716C125.567 34.2048 128.389 33.5213 131.387 33.5213ZM131.387 81.9347C132.974 81.9347 134.385 81.604 135.62 80.9426C136.899 80.2372 137.979 79.0467 138.861 77.3712C139.743 75.6957 140.404 73.469 140.845 70.6912C141.33 67.9134 141.572 64.4301 141.572 60.2413C141.572 55.8762 141.33 52.2385 140.845 49.3284C140.404 46.3743 139.743 44.0153 138.861 42.2516C137.979 40.4879 136.899 39.2313 135.62 38.4817C134.385 37.7322 132.974 37.3574 131.387 37.3574C129.8 37.3574 128.367 37.7322 127.088 38.4817C125.853 39.2313 124.795 40.4879 123.913 42.2516C123.032 44.0153 122.348 46.3743 121.863 49.3284C121.422 52.2385 121.202 55.8762 121.202 60.2413C121.202 64.4301 121.422 67.9134 121.863 70.6912C122.348 73.469 123.032 75.6957 123.913 77.3712C124.795 79.0467 125.853 80.2372 127.088 80.9426C128.367 81.604 129.8 81.9347 131.387 81.9347ZM157.041 67.3843L181.182 33.5213H187.465V67.1858C189.052 67.1417 190.353 67.0315 191.367 66.8551C192.381 66.6347 193.175 66.304 193.748 65.8631C194.321 65.3781 194.718 64.7387 194.938 63.9451C195.159 63.1514 195.269 62.1152 195.269 60.8365H197.716V76.9082H195.269C195.269 75.7177 195.159 74.7477 194.938 73.9981C194.718 73.2485 194.321 72.6753 193.748 72.2785C193.175 71.8376 192.381 71.551 191.367 71.4187C190.353 71.2423 189.052 71.1321 187.465 71.088V73.1383C187.465 74.6815 187.531 76.0264 187.663 77.1728C187.84 78.3192 188.148 79.2892 188.589 80.0828C189.03 80.8324 189.647 81.4056 190.441 81.8025C191.279 82.1993 192.337 82.4197 193.616 82.4638V85.1094H170.93V82.4638C172.473 82.4197 173.708 82.1993 174.634 81.8025C175.604 81.3615 176.331 80.7663 176.816 80.0167C177.346 79.2671 177.698 78.3632 177.875 77.305C178.051 76.2468 178.139 75.0122 178.139 73.6013V71.3526H157.041V67.3843ZM178.139 45.757H177.875L162.663 67.1858H178.139V45.757Z" fill="#FF765E"/>
<path opacity="0.1" d="M214.797 14.8174C216.558 14.8174 217.985 13.3901 217.985 11.6294C217.985 9.86872 216.558 8.44141 214.797 8.44141C213.037 8.44141 211.609 9.86872 211.609 11.6294C211.609 13.3901 213.037 14.8174 214.797 14.8174Z" fill="black"/>
<path d="M214.505 14.1104C216.266 14.1104 217.693 12.6831 217.693 10.9224C217.693 9.16169 216.266 7.73438 214.505 7.73438C212.745 7.73438 211.317 9.16169 211.317 10.9224C211.317 12.6831 212.745 14.1104 214.505 14.1104Z" fill="#66A1E3"/>
<path d="M216.302 10.922C216.302 11.914 215.497 12.719 214.505 12.719C213.513 12.719 212.708 11.915 212.708 10.922C212.708 9.929 213.512 9.125 214.505 9.125C215.497 9.125 216.302 9.929 216.302 10.922Z" fill="#78B3F5"/>
<path d="M214.692 9.328C215.159 9.328 215.581 9.511 215.9 9.803C215.571 9.393 215.071 9.125 214.504 9.125C213.512 9.125 212.707 9.929 212.707 10.922C212.707 11.447 212.936 11.915 213.296 12.244C213.049 11.936 212.895 11.551 212.895 11.125C212.896 10.133 213.7 9.328 214.692 9.328Z" fill="#A8D1FF"/>
<path opacity="0.1" d="M216.448 123.528C218.208 123.528 219.636 122.101 219.636 120.34C219.636 118.58 218.208 117.152 216.448 117.152C214.687 117.152 213.26 118.58 213.26 120.34C213.26 122.101 214.687 123.528 216.448 123.528Z" fill="black"/>
<path d="M216.156 122.821C217.916 122.821 219.344 121.394 219.344 119.633C219.344 117.873 217.916 116.445 216.156 116.445C214.395 116.445 212.968 117.873 212.968 119.633C212.968 121.394 214.395 122.821 216.156 122.821Z" fill="#66A1E3"/>
<path d="M217.952 119.633C217.952 120.625 217.147 121.43 216.155 121.43C215.163 121.43 214.358 120.626 214.358 119.633C214.358 118.641 215.163 117.836 216.155 117.836C217.147 117.836 217.952 118.64 217.952 119.633Z" fill="#78B3F5"/>
<path d="M216.343 118.039C216.81 118.039 217.232 118.222 217.551 118.514C217.222 118.104 216.722 117.836 216.155 117.836C215.162 117.836 214.358 118.641 214.358 119.633C214.358 120.158 214.587 120.626 214.947 120.955C214.7 120.647 214.546 120.262 214.546 119.836C214.546 118.844 215.35 118.039 216.343 118.039Z" fill="#A8D1FF"/>
<path opacity="0.1" d="M49.2759 119.985C51.0366 119.985 52.4639 118.558 52.4639 116.797C52.4639 115.037 51.0366 113.609 49.2759 113.609C47.5152 113.609 46.0879 115.037 46.0879 116.797C46.0879 118.558 47.5152 119.985 49.2759 119.985Z" fill="black"/>
<path d="M48.9848 119.276C50.745 119.276 52.1718 117.849 52.1718 116.089C52.1718 114.329 50.745 112.902 48.9848 112.902C47.2247 112.902 45.7979 114.329 45.7979 116.089C45.7979 117.849 47.2247 119.276 48.9848 119.276Z" fill="#66A1E3"/>
<path d="M50.7805 116.09C50.7805 117.082 49.9755 117.887 48.9835 117.887C47.9915 117.887 47.1865 117.083 47.1865 116.09C47.1865 115.097 47.9915 114.293 48.9835 114.293C49.9765 114.293 50.7805 115.098 50.7805 116.09Z" fill="#78B3F5"/>
<path d="M49.1715 114.496C49.6385 114.496 50.0605 114.679 50.3795 114.971C50.0505 114.561 49.5505 114.293 48.9835 114.293C47.9915 114.293 47.1865 115.097 47.1865 116.09C47.1865 116.615 47.4155 117.083 47.7755 117.412C47.5285 117.104 47.3745 116.719 47.3745 116.293C47.3745 115.301 48.1795 114.496 49.1715 114.496Z" fill="#A8D1FF"/>
<path d="M17.8539 171.192C17.8539 171.192 15.6469 144.617 19.5839 138.571C23.2469 132.945 33.1249 135.691 31.1849 144.757C29.9239 150.651 24.2319 170.484 24.2319 170.484L17.8539 171.192Z" fill="url(#paint0_linear_347_182)"/>
<path d="M21.7545 139.167C23.1735 136.987 25.5265 136.069 27.7635 136.284C25.0375 134.995 21.4795 135.659 19.5835 138.571C15.6475 144.617 17.8535 171.192 17.8535 171.192L19.9615 170.958C19.6295 166.446 18.2285 144.582 21.7545 139.167Z" fill="#ADE68F"/>
<path d="M21.6918 137.286L20.5898 135.113" stroke="#88BD6D" stroke-width="0.6537" stroke-miterlimit="10" stroke-linecap="round" stroke-linejoin="round"/>
<path d="M25.8525 136.56L26.0715 134.133" stroke="#88BD6D" stroke-width="0.6537" stroke-miterlimit="10" stroke-linecap="round" stroke-linejoin="round"/>
<path d="M29.127 138.394L30.242 136.227" stroke="#88BD6D" stroke-width="0.6537" stroke-miterlimit="10" stroke-linecap="round" stroke-linejoin="round"/>
<path d="M30.624 141.304L32.368 139.602" stroke="#88BD6D" stroke-width="0.6537" stroke-miterlimit="10" stroke-linecap="round" stroke-linejoin="round"/>
<path d="M28.5107 150.016L30.8527 150.687" stroke="#88BD6D" stroke-width="0.6537" stroke-miterlimit="10" stroke-linecap="round" stroke-linejoin="round"/>
<path d="M27.748 154.142L30.063 153.383" stroke="#88BD6D" stroke-width="0.6537" stroke-miterlimit="10" stroke-linecap="round" stroke-linejoin="round"/>
<path d="M27.085 156.836L28.74 157.082" stroke="#88BD6D" stroke-width="0.6537" stroke-miterlimit="10" stroke-linecap="round" stroke-linejoin="round"/>
<path d="M30.5195 144.324L32.4175 143.367" stroke="#88BD6D" stroke-width="0.6537" stroke-miterlimit="10" stroke-linecap="round" stroke-linejoin="round"/>
<path d="M29.4531 147.336L31.5781 147.301" stroke="#88BD6D" stroke-width="0.6537" stroke-miterlimit="10" stroke-linecap="round" stroke-linejoin="round"/>
<path d="M20.5054 139.784L18.4824 138.426" stroke="#88BD6D" stroke-width="0.6537" stroke-miterlimit="10" stroke-linecap="round" stroke-linejoin="round"/>
<path d="M10.7771 167.701C10.7771 167.701 0.262106 138.971 2.78011 131.086C5.12311 123.749 16.8861 123.786 17.4941 134.405C17.8891 141.309 17.6181 164.98 17.6181 164.98L10.7771 167.701Z" fill="url(#paint1_linear_347_182)"/>
<path d="M5.36311 131.088C6.27111 128.245 8.5951 126.515 11.1351 126.073C7.7281 125.475 3.99311 127.29 2.78011 131.088C0.262106 138.973 10.7771 167.703 10.7771 167.703L13.0381 166.804C11.3001 161.913 3.10811 138.149 5.36311 131.088Z" fill="#ADE68F"/>
<path d="M4.26855 141.746H1.93555" stroke="#88BD6D" stroke-width="0.75" stroke-miterlimit="10" stroke-linecap="round" stroke-linejoin="round"/>
<path d="M5.17464 146.59L2.38965 146.83" stroke="#88BD6D" stroke-width="0.75" stroke-miterlimit="10" stroke-linecap="round" stroke-linejoin="round"/>
<path d="M6.47907 151.059L3.87207 152.067" stroke="#88BD6D" stroke-width="0.75" stroke-miterlimit="10" stroke-linecap="round" stroke-linejoin="round"/>
<path d="M4.72178 129.027L2.84277 126.957" stroke="#88BD6D" stroke-width="0.75" stroke-miterlimit="10" stroke-linecap="round" stroke-linejoin="round"/>
<path d="M9.10435 126.958L8.61035 124.207" stroke="#88BD6D" stroke-width="0.75" stroke-miterlimit="10" stroke-linecap="round" stroke-linejoin="round"/>
<path d="M13.2852 127.994L13.8591 125.258" stroke="#88BD6D" stroke-width="0.75" stroke-miterlimit="10" stroke-linecap="round" stroke-linejoin="round"/>
<path d="M15.8242 130.76L17.2372 128.348" stroke="#88BD6D" stroke-width="0.75" stroke-miterlimit="10" stroke-linecap="round" stroke-linejoin="round"/>
<path d="M16.1338 141.039L18.9288 141.071" stroke="#88BD6D" stroke-width="0.75" stroke-miterlimit="10" stroke-linecap="round" stroke-linejoin="round"/>
<path d="M16.543 145.836L18.874 144.293" stroke="#88BD6D" stroke-width="0.75" stroke-miterlimit="10" stroke-linecap="round" stroke-linejoin="round"/>
<path d="M16.6279 149.016L18.5339 148.785" stroke="#88BD6D" stroke-width="0.75" stroke-miterlimit="10" stroke-linecap="round" stroke-linejoin="round"/>
<path d="M16.6279 134.131L18.4359 132.496" stroke="#88BD6D" stroke-width="0.75" stroke-miterlimit="10" stroke-linecap="round" stroke-linejoin="round"/>
<path d="M16.3623 137.786L18.7023 137.102" stroke="#88BD6D" stroke-width="0.75" stroke-miterlimit="10" stroke-linecap="round" stroke-linejoin="round"/>
<path d="M4.16758 132.15L1.51758 131.262" stroke="#88BD6D" stroke-width="0.75" stroke-miterlimit="10" stroke-linecap="round" stroke-linejoin="round"/>
<path d="M3.781 135.793L1 136.079" stroke="#88BD6D" stroke-width="0.75" stroke-miterlimit="10" stroke-linecap="round" stroke-linejoin="round"/>
<path d="M6.98852 132.598C7.27018 132.598 7.49852 132.37 7.49852 132.088C7.49852 131.806 7.27018 131.578 6.98852 131.578C6.70685 131.578 6.47852 131.806 6.47852 132.088C6.47852 132.37 6.70685 132.598 6.98852 132.598Z" fill="#88BD6D"/>
<path d="M12.0155 134.473C12.0155 134.944 11.6335 135.325 11.1635 135.325C10.6935 135.325 10.3115 134.944 10.3115 134.473C10.3115 134.002 10.6935 133.621 11.1635 133.621C11.6345 133.621 12.0155 134.003 12.0155 134.473Z" fill="#88BD6D"/>
<path d="M15.196 143.548C14.651 144.29 13.608 144.45 12.866 143.905C12.124 143.36 11.964 142.317 12.509 141.575C13.054 140.833 14.097 140.673 14.839 141.218C15.581 141.763 15.741 142.806 15.196 143.548Z" fill="#88BD6D"/>
<path d="M12.1511 150.114C11.7681 150.636 11.1241 150.815 10.7141 150.514C10.3041 150.213 10.2821 149.545 10.6651 149.023C11.0481 148.501 11.6921 148.322 12.1021 148.623C12.5121 148.924 12.5341 149.592 12.1511 150.114Z" fill="#88BD6D"/>
<path d="M9.33735 138.556C9.73886 138.556 10.0643 138.23 10.0643 137.829C10.0643 137.427 9.73886 137.102 9.33735 137.102C8.93584 137.102 8.61035 137.427 8.61035 137.829C8.61035 138.23 8.93584 138.556 9.33735 138.556Z" fill="#88BD6D"/>
<path d="M2.38965 162.68L4.84665 190.235H8.51265L8.25365 188.8H14.8936L15.0197 190.235H20.6956L21.0016 188.8H26.2066L26.1306 190.235H29.4456L31.9026 162.68H2.38965Z" fill="#A87C56"/>
<path d="M7.37264 162.68H2.38965L4.84665 190.235H8.51265L8.25365 188.8H10.1606L7.37264 162.68Z" fill="#BA8A60"/>
<path d="M2.65064 165.608L31.4876 167.332L31.9026 162.68H2.38965L2.65064 165.608Z" fill="url(#paint2_linear_347_182)"/>
<path d="M32.3347 165.047L32.7817 160.031H1.51074L1.95775 165.047H32.3347Z" fill="#D68E4F"/>
<path d="M6.42975 160.031H1.51074L1.95775 165.047H7.02675L6.42975 160.031Z" fill="#E3A874"/>
<path d="M221.031 238.445C209.319 239.351 197.978 234.494 190.33 224.971C188.429 222.605 188.808 219.146 191.174 217.245C193.537 215.345 196.999 215.72 198.9 218.089C206.465 227.506 217.272 228.701 224.853 226.687C233.054 224.506 238.66 218.708 239.852 211.175C241.756 199.143 235.689 189.719 230.336 181.404C227.345 176.761 224.764 172.75 223.829 168.626C223.159 165.666 225.013 162.723 227.974 162.051C230.935 161.381 233.877 163.236 234.548 166.196C235.055 168.43 237.252 171.842 239.576 175.454C245.353 184.429 253.265 196.719 250.706 212.892C248.843 224.671 240.017 234.026 227.677 237.308C225.464 237.898 223.24 238.274 221.031 238.445Z" fill="url(#paint3_linear_347_182)"/>
<path d="M230.662 145.259C217.979 123.51 185.281 122.717 170.22 128.662C155.159 134.607 134.275 143.032 129.857 142.732C109.778 141.368 83.4792 164.333 83.4792 164.333C83.4792 164.333 73.9092 170.278 73.9092 178.403C73.9092 186.528 78.5832 188.708 83.4792 188.708C86.5072 188.708 133.43 188.708 172.039 188.708C169.294 189.859 166.625 191.373 167.148 192.771C168.337 195.948 174.845 196.345 181.067 195.008C186.619 193.815 222.854 193.543 230.761 183.854C239.877 172.682 236.449 155.184 230.662 145.259Z" fill="url(#paint4_linear_347_182)"/>
<path opacity="0.31" d="M142.934 139.164L83.4785 164.333C83.4785 164.333 87.7555 177.494 106.612 180.696L106.593 180.698C110.79 181.18 114.489 185.012 114.308 188.709H119.023C119.023 188.709 120.22 181.975 127.737 180.118L127.745 180.108C157.222 173.906 142.934 139.164 142.934 139.164Z" fill="#874732"/>
<path d="M84.0033 144.961C84.0033 144.961 75.3853 129.64 75.7703 115.17C75.8173 113.389 77.4403 112.072 79.1893 112.413C83.3883 113.232 91.0383 115.839 97.8243 124.132L84.0033 144.961Z" fill="url(#paint5_linear_347_182)"/>
<path opacity="0.5" d="M85.051 137.236C85.051 137.236 79.923 128.119 80.152 119.509C80.18 118.449 81.146 117.665 82.186 117.868C84.685 118.355 89.237 119.906 93.274 124.841L85.051 137.236Z" fill="#FF7C4F"/>
<path d="M132.218 132.73C132.218 132.73 132.49 115.153 125.253 102.617C124.362 101.074 122.308 100.69 120.933 101.823C117.632 104.545 112.15 110.483 110.139 121.009L132.218 132.73Z" fill="url(#paint6_linear_347_182)"/>
<path opacity="0.5" d="M127.613 126.436C127.613 126.436 127.775 115.977 123.469 108.518C122.939 107.6 121.716 107.371 120.899 108.046C118.935 109.666 115.673 113.199 114.476 119.462L127.613 126.436Z" fill="#FF7C4F"/>
<path d="M102.942 118.478C85.5395 122.893 76.1885 144.147 82.5065 161.599C88.8245 179.051 106.809 178.423 117.464 175.72C128.119 173.017 144.229 164.995 141.462 146.641C138.697 128.288 120.345 114.063 102.942 118.478Z" fill="url(#paint7_linear_347_182)"/>
<path d="M122.624 154.187C123.686 158.375 119.142 159.208 113.63 160.606C108.118 162.004 103.726 163.438 102.664 159.251C101.602 155.063 105.209 150.535 110.721 149.137C116.232 147.738 121.562 149.999 122.624 154.187Z" fill="#FFFBF7"/>
<path d="M123.688 137.497C120.106 137.278 116.666 138.869 114.529 141.754C113.543 143.084 115.443 144.868 116.442 143.52C118.217 141.124 120.776 139.917 123.76 140.099C125.435 140.202 125.348 137.599 123.688 137.497Z" fill="#874732"/>
<path d="M94.5317 144.895C97.5757 142.995 101.358 142.754 104.613 144.271C106.114 144.97 105.294 147.444 103.773 146.735C101.07 145.475 98.2447 145.634 95.7097 147.216C94.2857 148.105 93.1207 145.776 94.5317 144.895Z" fill="#874732"/>
<path d="M112.517 156.217C109.581 156.962 107.143 155.392 106.976 153.535C106.809 151.677 108.956 151.248 111.117 150.699C113.278 150.151 115.371 149.505 116.109 151.217C116.848 152.931 115.453 155.473 112.517 156.217Z" fill="#874732"/>
<g opacity="0.55">
<path d="M102.184 154.308C103.022 157.612 101.023 160.971 97.7192 161.809C94.4152 162.647 91.0562 160.648 90.2182 157.344C89.3802 154.04 91.3792 150.681 94.6832 149.843C97.9872 149.005 101.346 151.004 102.184 154.308Z" fill="#FF915E"/>
<path d="M132.658 146.578C133.496 149.882 131.497 153.241 128.193 154.079C124.889 154.917 121.53 152.918 120.692 149.614C119.854 146.31 121.853 142.951 125.157 142.113C128.461 141.275 131.819 143.274 132.658 146.578Z" fill="#FF915E"/>
</g>
<path d="M86.0037 159.358C85.8597 159.394 85.7037 159.374 85.5687 159.286C85.3157 159.12 85.2437 158.781 85.4097 158.526C87.8897 154.72 92.7897 154.742 92.9997 154.746C93.3017 154.748 93.5447 154.998 93.5407 155.301C93.5387 155.603 93.3057 155.857 92.9857 155.842C92.9447 155.843 88.4747 155.834 86.3297 159.126C86.2517 159.247 86.1327 159.326 86.0037 159.358Z" fill="#874732"/>
<path d="M89.9528 163.807C89.8468 163.834 89.7358 163.831 89.6248 163.789C89.3418 163.684 89.1968 163.368 89.3038 163.082C90.4778 159.938 93.9338 158.184 94.0808 158.111C94.3678 157.969 94.6838 158.088 94.8168 158.358C94.9528 158.628 94.8418 158.958 94.5698 159.094C94.5378 159.109 91.3528 160.732 90.3318 163.468C90.2658 163.644 90.1218 163.764 89.9528 163.807Z" fill="#874732"/>
<path d="M137.32 146.341C137.192 146.374 137.05 146.362 136.924 146.293C133.456 144.41 129.547 146.557 129.507 146.579C129.252 146.737 128.91 146.635 128.761 146.368C128.613 146.104 128.707 145.768 128.972 145.622C129.154 145.518 133.458 143.169 137.446 145.327C137.713 145.472 137.812 145.804 137.668 146.071C137.591 146.212 137.464 146.304 137.32 146.341Z" fill="#874732"/>
<path d="M135.969 152.135C135.8 152.178 135.616 152.141 135.474 152.016C133.275 150.099 129.699 150.191 129.664 150.193C129.36 150.203 129.106 149.966 129.096 149.664C129.084 149.36 129.303 149.101 129.625 149.096C129.789 149.09 133.665 148.984 136.194 151.191C136.424 151.389 136.447 151.735 136.246 151.964C136.171 152.053 136.075 152.109 135.969 152.135Z" fill="#874732"/>
<g opacity="0.31">
<path d="M115.154 165.239C112.784 165.84 110.587 165.399 110.448 165.369C110.129 165.301 109.922 164.987 109.989 164.666C110.055 164.343 110.378 164.139 110.691 164.205C110.737 164.215 115.255 165.11 117.885 162.408C118.117 162.172 118.492 162.165 118.725 162.396C118.961 162.626 118.965 163.004 118.737 163.236C117.675 164.326 116.39 164.926 115.154 165.239Z" fill="#874732"/>
</g>
<g opacity="0.5">
<path d="M169.94 128.775C172.168 132.986 174.891 139.177 175.928 145.835C177.386 155.192 183.912 153.032 185.821 149.949C187.308 147.547 188.638 134.233 186.345 125.594C180.137 125.88 174.467 126.989 170.22 128.666C170.128 128.701 170.032 128.739 169.94 128.775Z" fill="#FF7C4F"/>
<path d="M189.676 125.52C190.844 129.631 191.857 134.681 191.845 139.851C191.822 149.32 198.606 148.208 200.973 145.461C202.429 143.772 204.856 135.34 205.368 127.489C200.159 126.13 194.793 125.541 189.676 125.52Z" fill="#FF7C4F"/>
<path d="M160.609 154.365C164.076 163.177 169.973 159.644 171.162 156.218C172.161 153.341 170.212 138.132 165.341 130.594C160.051 132.686 154.391 134.916 149.139 136.892C152.271 140.261 157.592 146.698 160.609 154.365Z" fill="#FF7C4F"/>
</g>
<path opacity="0.31" d="M172.038 188.707C172.038 188.707 184.24 183.778 186.568 179.096C188.163 175.89 188.847 160.608 197.52 156.703C197.52 156.703 186.618 156.703 178.76 171.665C172.845 182.927 159.815 188.212 154.167 188.708C162.045 188.707 172.038 188.707 172.038 188.707Z" fill="#874732"/>
<g opacity="0.5">
<path d="M228.901 225.172C227.628 225.77 226.297 226.304 224.853 226.688C223.234 227.118 221.462 227.39 219.612 227.478C220.092 230.722 220.098 234.681 218.651 238.545C219.442 238.536 220.236 238.507 221.032 238.445C223.241 238.273 225.465 237.898 227.679 237.309C228.111 237.194 228.527 237.055 228.95 236.925C229.719 232.646 229.491 228.561 228.901 225.172Z" fill="#FF7C4F"/>
<path d="M202.324 234.751C205.242 236.228 208.342 237.276 211.544 237.895C213.441 234.345 214.246 230.603 214.374 227.189C211.106 226.671 207.771 225.479 204.65 223.387C205.079 226.081 205.192 230.693 202.324 234.751Z" fill="#FF7C4F"/>
<path d="M244.671 226.498C243.36 221.307 240.927 217.079 239.018 214.363C237.868 217.642 235.821 220.482 233.031 222.679C234.618 225.572 236.103 229.488 236.057 233.855C239.424 231.902 242.333 229.409 244.671 226.498Z" fill="#FF7C4F"/>
</g>
<g opacity="0.31">
<path d="M103.386 185.535C103.059 185.535 102.792 185.8 102.792 186.129C102.792 186.457 103.057 186.721 103.386 186.724C103.517 186.724 106.329 186.783 106.765 188.706C107.168 188.706 107.565 188.706 107.975 188.706C107.634 186.232 104.894 185.535 103.386 185.535Z" fill="#874732"/>
<path d="M112.324 188.699C112.264 184.628 107.521 183.053 107.319 182.988C107.012 182.893 106.673 183.059 106.571 183.372C106.471 183.683 106.643 184.019 106.956 184.121C106.996 184.133 111.074 185.484 111.132 188.707C111.522 188.707 111.924 188.707 112.319 188.707C112.321 188.704 112.324 188.702 112.324 188.699Z" fill="#874732"/>
</g>
<g opacity="0.31">
<path d="M122.016 188.708C122.667 185.75 125.266 184.602 125.392 184.55C125.694 184.42 125.833 184.072 125.706 183.77C125.578 183.47 125.225 183.324 124.93 183.454C124.774 183.518 121.511 184.965 120.827 188.708C121.219 188.708 121.62 188.708 122.016 188.708Z" fill="#874732"/>
<path d="M127.768 186.65C128.054 186.487 128.153 186.125 127.991 185.839C127.831 185.556 127.468 185.456 127.185 185.614C127.089 185.666 125.378 186.655 124.649 188.709C125.08 188.709 125.519 188.709 125.954 188.709C126.589 187.363 127.699 186.688 127.768 186.65Z" fill="#874732"/>
</g>
<g opacity="0.31">
<path d="M176.013 191.615C175.863 191.67 172.914 192.798 171.254 195.389C171.672 195.474 172.093 195.554 172.551 195.604C174.045 193.646 176.388 192.743 176.419 192.732C176.726 192.62 176.886 192.279 176.772 191.97C176.658 191.661 176.31 191.51 176.013 191.615Z" fill="#874732"/>
<path d="M174.907 190.5C174.844 190.18 174.542 189.975 174.208 190.033C174.024 190.07 170.378 190.848 167.389 193.142C167.58 193.483 167.827 193.791 168.146 194.06C170.925 191.949 174.4 191.206 174.441 191.199C174.763 191.134 174.972 190.82 174.907 190.5Z" fill="#874732"/>
</g>
<defs>
<linearGradient id="paint0_linear_347_182" x1="26.412" y1="133.758" x2="21.4438" y2="162.26" gradientUnits="userSpaceOnUse">
<stop stop-color="#A1D685"/>
<stop offset="1" stop-color="#71C782"/>
</linearGradient>
<linearGradient id="paint1_linear_347_182" x1="10.0732" y1="136.232" x2="12.4898" y2="161.482" gradientUnits="userSpaceOnUse">
<stop offset="0.1134" stop-color="#A1D685"/>
<stop offset="1" stop-color="#71C782"/>
</linearGradient>
<linearGradient id="paint2_linear_347_182" x1="2.38985" y1="165.005" x2="31.9022" y2="165.005" gradientUnits="userSpaceOnUse">
<stop stop-color="#805E41"/>
<stop offset="1" stop-color="#A87C56"/>
</linearGradient>
<linearGradient id="paint3_linear_347_182" x1="224.811" y1="228.088" x2="210.379" y2="177.234" gradientUnits="userSpaceOnUse">
<stop stop-color="#FFDA5E"/>
<stop offset="1" stop-color="#E89540"/>
</linearGradient>
<linearGradient id="paint4_linear_347_182" x1="155.142" y1="164.333" x2="155.142" y2="225.592" gradientUnits="userSpaceOnUse">
<stop stop-color="#FFDA5E"/>
<stop offset="1" stop-color="#E89540"/>
</linearGradient>
<linearGradient id="paint5_linear_347_182" x1="84.6408" y1="121.945" x2="106.222" y2="165.462" gradientUnits="userSpaceOnUse">
<stop stop-color="#FFDA5E"/>
<stop offset="1" stop-color="#E89540"/>
</linearGradient>
<linearGradient id="paint6_linear_347_182" x1="120.685" y1="112.801" x2="122.458" y2="161.342" gradientUnits="userSpaceOnUse">
<stop stop-color="#FFDA5E"/>
<stop offset="1" stop-color="#E89540"/>
</linearGradient>
<linearGradient id="paint7_linear_347_182" x1="108.204" y1="139.214" x2="130.324" y2="226.409" gradientUnits="userSpaceOnUse">
<stop stop-color="#FFDA5E"/>
<stop offset="1" stop-color="#E89540"/>
</linearGradient>
</defs>
</svg>
